# xmcd
#
# Track frame offsets:
#        187
#        14920
#        26580
#        42060
#
# Disc length: 746 seconds
#
# Revision: 2
# Processed by: cddbd v1.5.1PL0 Copyright (c) Steve Scherf et al.
# Submitted via: ExactAudioCopy v0.95a5
#
DISCID=2b02e804
DTITLE=Fairground Attraction - Clare
DYEAR=1989
DGENRE=Rock
TTITLE0=Clare
TTITLE1=Do You Want To Know A Secret
TTITLE2=The Game Of Love
TTITLE3=Jock O''Hazeldean
EXTD=
EXTT0=
EXTT1=
EXTT2=
EXTT3=
PLAYORDER=
